<svg width="2048" height="2048" version="1.1" xmlns="http://www.w3.org/2000/svg" desc="Created with imagetracer.js version 1.2.6" ><path fill="rgb(187,198,207)" stroke="rgb(187,198,207)" stroke-width="1" opacity="0.9725490196078431" d="M 657.5 868 L 864.5 868 L 866 869.5 L 861 879.5 L 864 882.5 L 866 890.5 L 866 892.5 L 866 915.5 L 867 916.5 L 867 940.5 L 868 941.5 L 868.5 960 L 950.5 868 L 1052 868.5 L 989 931.5 L 989 933 L 987 933 L 987 935 Q 984.3 933.9 985 936.5 L 958 963.5 L 958 965 Q 955.3 963.9 956 966.5 L 937 985.5 L 937 987 Q 934.3 985.9 935 988.5 L 915 1008.5 L 915 1010 L 908 1015.5 L 906 1018.5 L 872 1053.5 L 853 1093.5 L 810.5 1173 L 718 1172.5 L 724 1163.5 L 720.5 1162 L 718.5 1163 L 717.5 1162 L 693 1161.5 L 726 1160 L 733.5 1146 L 757.5 1145 L 765 1143.5 L 737.5 1142 L 735.5 1140 L 720.5 1140 L 719.5 1139 L 660 1137.5 L 677.5 1137 L 678.5 1136 L 705.5 1136 L 706.5 1135 L 738.5 1135 L 742 1132.5 L 785 1050.5 L 786 1038.5 L 785 1037.5 L 785 1021.5 L 783 1012.5 L 781 980 L 755.5 980 L 754.5 979 L 735 978.5 L 736.5 977 L 780 974 L 779 956 L 798.5 956 L 799 951 Q 795 952.4 797 945.5 L 795.5 944 L 777.5 944 L 776.5 943 L 703.5 943 L 665 1015.5 L 655 1037.5 L 644 1056.5 L 615 1114.5 L 607 1133.5 L 585.5 1173 L 498.5 1173 L 497.5 1172 L 483.5 1172 L 482.5 1171 L 459.5 1170 L 450.5 1168 L 440.5 1168 L 437 1166.5 L 445.5 1166 L 464.5 1162 L 471.5 1162 L 472.5 1161 L 492.5 1160 Q 493.8 1157.8 498.5 1159 L 501 1156.5 L 502 1152 L 438 1150.5 L 457.5 1150 L 458.5 1149 L 481.5 1149 L 492.5 1147 L 503.5 1147 L 510.5 1143 L 537.5 1143 L 538.5 1142 L 548 1141.5 L 532.5 1141 L 531.5 1140 L 512.5 1140 L 510 1139 L 513 1131.5 L 517 1126.5 L 520 1117.5 L 526 1108.5 L 522.5 1107 L 413.5 1105 L 412.5 1104 L 392.5 1104 L 391.5 1103 L 330.5 1102 L 327 1100.5 L 348.5 1100 L 349.5 1099 L 376.5 1099 L 377.5 1098 L 402.5 1098 L 403.5 1097 L 429.5 1097 L 430.5 1096 L 453.5 1096 L 454.5 1095 L 532.5 1094 L 535 1091.5 L 556 1048 L 553.5 1049 L 524.5 1049 L 523.5 1048 L 510 1047.5 L 557.5 1045 L 559 1043.5 L 571 1019 L 515.5 1019 L 514.5 1018 L 484.5 1018 L 483.5 1017 L 463 1016.5 L 502.5 1014 L 503.5 1013 L 521.5 1012 L 522.5 1011 L 532.5 1011 L 544.5 1008 L 577.5 1008 L 578.5 1009 L 588.5 1009 L 588.5 1008 Q 583 1009.5 581.5 1007 L 549.5 1007 Q 546.3 1004.3 540 1004.5 L 544 1003.5 L 541 1002.5 L 559.5 1002 L 572 999.5 L 546.5 999 L 537 995.5 L 544 994.5 L 538.5 993 L 512.5 992 L 511.5 991 L 488.5 991 L 487.5 990 L 467.5 990 L 466.5 989 L 380 986.5 L 491.5 985 L 492.5 984 L 524.5 984 L 525.5 983 L 588.5 983 L 591 980.5 L 609 944.5 Q 607.8 941.8 602.5 943 L 600.5 944 L 598.5 944 Q 593 945.5 591.5 943 L 514.5 943 L 512.5 942 L 508.5 943 L 507.5 942 L 454.5 942 L 453.5 941 L 445 940.5 L 466.5 940 L 467.5 939 L 516.5 939 L 519 938 L 523 928.5 L 527 923 L 488.5 923 L 486 921.5 L 528.5 921 L 531 918.5 L 534 910 Q 536.7 911.1 536 908.5 L 539 903 L 523.5 903 L 522.5 902 L 496.5 902 L 495.5 901 L 384 899.5 L 410.5 899 L 411.5 898 L 504.5 897 L 505.5 896 L 541.5 895 L 549.5 892 L 587.5 892 L 588.5 891 L 616.5 891 L 622 889.5 L 551.5 888 L 543.5 885 L 525.5 885 L 521 883.5 L 530.5 883 L 531.5 884 L 550.5 884 L 552 881 L 536.5 881 L 535.5 880 L 478.5 879 L 477.5 878 L 475.5 879 L 475.5 878 L 477.5 877 Q 479.3 879.8 485.5 878 L 486.5 877 L 501.5 877 L 511.5 875 L 556.5 874 L 559 871.5 L 560.5 869 L 656.5 869 L 657.5 868 Z M 852 901 L 851 903 Q 855 902 854 905 Q 859 907 857 902 L 852 901 Z M 852 907 Q 850 909 846 908 L 843 911 L 844 930 L 854 913 L 854 909 L 852 907 Z M 575 998 L 575 999 L 577 999 L 575 998 Z " /><path fill="rgb(187,198,207)" stroke="rgb(187,198,207)" stroke-width="1" opacity="0.9725490196078431" d="M 1120.5 868 L 1306.5 868 L 1317.5 870 L 1330.5 875 L 1345 887.5 Q 1356 899.5 1355 923.5 L 1352 937.5 L 1345 955.5 L 1324 996.5 Q 1313 1017 1296.5 1032 Q 1284.5 1043 1268.5 1050 L 1248.5 1058 L 1232.5 1062 Q 1226.2 1060.3 1224.5 1063 L 1045.5 1063 L 1043 1065.5 L 1021 1111.5 L 1014 1122.5 L 989 1173 L 895 1172.5 L 901 1163 L 868.5 1163 L 861 1161.5 L 901.5 1160 L 905 1157.5 L 909 1149 L 916.5 1147 L 940.5 1146 L 945 1144.5 L 937.5 1143 L 917.5 1143 L 916.5 1142 L 898.5 1141 L 897.5 1140 L 843 1138.5 L 853.5 1138 L 854.5 1137 L 910.5 1136 Q 912.3 1133.2 918.5 1135 L 921 1132.5 L 923 1125.5 L 935 1104.5 L 1036 902.5 L 1035 899 L 1040 895.5 L 1041.5 893 L 1070.5 893 L 1071.5 892 L 1099.5 892 L 1100.5 891 L 1118 890.5 L 1109.5 889 L 1087.5 889 L 1086.5 888 L 1047 886.5 L 1056 869 L 1119.5 869 L 1120.5 868 Z M 1106 943 L 1086 983 L 1086 984 L 1229 984 L 1238 980 L 1243 974 L 1253 954 L 1254 945 L 1253 943 L 1106 943 Z " /><path fill="rgb(187,198,207)" stroke="rgb(187,198,207)" stroke-width="1" opacity="0.9725490196078431" d="M 1428.5 868 L 1665.5 868 L 1666 869.5 L 1621.5 943 L 1453.5 943 L 1453 945.5 L 1441 966.5 L 1438 974.5 L 1433 981.5 L 1519 982.5 L 1495.5 1003 L 1486.5 1009 L 1430.5 1010 L 1429.5 1011 L 1419 1011.5 L 1477.5 1013 L 1483.5 1015 L 1513.5 1016 L 1516 1017.5 L 1514.5 1018 L 1513.5 1017 L 1478.5 1017 L 1432.5 1055 L 1396 1055 L 1391 1069.5 L 1376 1097.5 L 1551 1098.5 L 1535 1124.5 L 1509 1173 L 1328.5 1173 L 1314.5 1170 L 1301.5 1164 L 1290 1153.5 L 1284 1143.5 L 1281 1134.5 L 1281 1113.5 L 1283 1104.5 L 1291 1083.5 L 1357 951.5 L 1385 899.5 Q 1380.2 896.4 1370.5 898 L 1366.5 899 L 1365.5 897 L 1375.5 895 L 1377.5 896 L 1391.5 892 L 1447.5 891 L 1449 889.5 L 1394.5 887 L 1393 885.5 L 1397 879.5 L 1378.5 879 L 1377.5 878 L 1376 878.5 Q 1375.1 875.1 1380.5 877 L 1382.5 878 L 1389.5 876 L 1395.5 876 L 1398 877.5 L 1399 874 L 1354.5 874 L 1353.5 873 L 1345 872.5 L 1349.5 871 L 1385.5 871 L 1389.5 870 L 1390.5 871 L 1399.5 871 L 1403.5 869 L 1427.5 869 L 1428.5 868 Z " /><path fill="rgb(187,198,207)" stroke="rgb(187,198,207)" stroke-width="1" opacity="0.9725490196078431" d="M 458.5 1082 L 517.5 1082 L 518.5 1083 L 533 1083.5 L 496.5 1084 L 495.5 1083 L 458.5 1083 L 458.5 1082 Z " /><path fill="rgb(0,0,0)" stroke="rgb(0,0,0)" stroke-width="1" opacity="0" d="M 0 0 L 2048 0 L 2048 2048 L 0 2048 L 0 0 Z M 658 868 L 657 869 L 561 869 L 559 872 L 557 874 L 512 875 L 502 877 L 487 877 L 478 879 L 552 881 L 551 884 L 532 884 L 531 883 L 521 884 L 526 885 L 544 885 L 545 886 L 549 885 L 548 887 L 552 888 L 622 890 L 617 891 L 589 891 L 588 892 L 550 892 L 542 895 L 506 896 L 505 897 L 412 898 L 411 899 L 384 900 L 496 901 L 497 902 L 523 902 L 524 903 L 539 903 L 536 909 Q 537 911 534 910 L 531 919 L 529 921 L 486 922 L 489 923 L 527 923 L 523 929 L 519 938 L 517 939 L 468 939 L 467 940 L 445 941 L 454 941 L 455 942 L 508 942 L 509 943 L 513 942 L 515 943 L 592 943 Q 593 946 599 944 L 601 944 L 603 943 Q 608 942 609 945 L 591 981 L 589 983 L 526 983 L 525 984 L 493 984 L 492 985 L 380 987 L 467 989 L 468 990 L 488 990 L 489 991 L 512 991 L 513 992 L 539 993 L 544 995 L 537 996 L 547 999 L 572 1000 L 560 1002 L 541 1003 L 544 1004 L 540 1005 Q 546 1004 550 1007 L 582 1007 Q 583 1010 589 1008 L 589 1009 L 579 1009 L 578 1008 L 545 1008 L 533 1011 L 523 1011 L 522 1012 L 504 1013 L 503 1014 L 463 1017 L 484 1017 L 485 1018 L 515 1018 L 516 1019 L 571 1019 L 559 1044 L 558 1045 L 510 1048 L 524 1048 L 525 1049 L 554 1049 L 556 1048 L 535 1092 L 533 1094 L 455 1095 L 454 1096 L 431 1096 L 430 1097 L 404 1097 L 403 1098 L 378 1098 L 377 1099 L 350 1099 L 349 1100 L 327 1101 L 331 1102 L 392 1103 L 393 1104 L 413 1104 L 414 1105 L 523 1107 L 526 1109 L 520 1118 L 517 1127 L 513 1132 L 510 1139 L 513 1140 L 532 1140 L 533 1141 L 548 1142 L 539 1142 L 538 1143 L 511 1143 L 504 1147 L 493 1147 L 482 1149 L 459 1149 L 458 1150 L 438 1151 L 502 1152 L 501 1157 L 499 1159 Q 494 1158 493 1160 L 473 1161 L 472 1162 L 465 1162 L 446 1166 L 437 1167 L 441 1168 L 451 1168 L 460 1170 L 483 1171 L 484 1172 L 498 1172 L 499 1173 L 586 1173 L 607 1134 L 615 1115 L 644 1057 L 655 1038 L 665 1016 L 704 943 L 777 943 L 778 944 L 796 944 L 797 946 Q 795 952 799 951 L 799 956 L 779 956 L 780 974 L 737 977 L 735 979 L 755 979 L 756 980 L 781 980 L 783 1013 L 785 1022 L 785 1038 L 786 1039 L 785 1051 L 742 1133 L 739 1135 L 707 1135 L 706 1136 L 679 1136 L 678 1137 L 660 1138 L 720 1139 L 721 1140 L 736 1140 L 738 1142 L 765 1144 L 758 1145 L 734 1146 L 726 1160 L 693 1162 L 718 1162 L 719 1163 L 721 1162 L 724 1164 L 718 1173 L 811 1173 L 853 1094 L 872 1054 L 906 1019 L 908 1016 L 915 1010 L 915 1009 L 935 989 Q 934 986 937 987 L 937 986 L 956 967 Q 955 964 958 965 L 958 964 L 985 937 Q 984 934 987 935 L 987 933 L 989 933 L 989 932 L 1052 869 L 951 868 L 869 960 L 868 942 L 867 941 L 867 917 L 866 916 L 866 893 L 866 891 L 864 883 L 861 880 L 866 870 L 865 868 L 658 868 Z M 1121 868 L 1120 869 L 1056 869 L 1047 887 L 1087 888 L 1088 889 L 1110 889 L 1118 891 L 1101 891 L 1100 892 L 1072 892 L 1071 893 L 1042 893 L 1040 896 L 1035 899 L 1036 903 L 935 1105 L 923 1126 L 921 1133 L 919 1135 Q 912 1133 911 1136 L 855 1137 L 854 1138 L 843 1139 L 898 1140 L 899 1141 L 917 1142 L 918 1143 L 938 1143 L 945 1145 L 941 1146 L 917 1147 L 909 1149 L 905 1158 L 902 1160 L 861 1162 L 869 1163 L 901 1163 L 895 1173 L 989 1173 L 1014 1123 L 1021 1112 L 1043 1066 L 1046 1063 L 1225 1063 Q 1226 1060 1233 1062 L 1249 1058 L 1269 1050 Q 1285 1043 1297 1032 Q 1313 1017 1324 997 L 1345 956 L 1352 938 L 1355 924 Q 1356 900 1345 888 L 1331 875 L 1318 870 L 1307 868 L 1121 868 Z M 1429 868 L 1428 869 L 1404 869 L 1400 871 L 1391 871 L 1390 870 L 1386 871 L 1350 871 L 1345 873 L 1354 873 L 1355 874 L 1399 874 L 1398 878 L 1396 878 L 1396 876 L 1390 876 L 1383 878 L 1381 877 Q 1375 875 1376 879 L 1378 878 L 1379 879 L 1397 880 L 1393 886 L 1395 887 L 1449 890 L 1448 891 L 1392 892 L 1378 896 L 1376 895 L 1366 897 L 1367 899 L 1371 898 Q 1380 896 1385 900 L 1357 952 L 1291 1084 L 1283 1105 L 1281 1114 L 1281 1135 L 1284 1144 L 1290 1154 L 1302 1164 L 1315 1170 L 1329 1173 L 1509 1173 L 1535 1125 L 1551 1099 L 1376 1098 L 1391 1070 L 1396 1055 L 1433 1055 L 1479 1017 L 1514 1017 L 1484 1015 L 1478 1013 L 1419 1012 L 1430 1011 L 1431 1010 L 1487 1009 L 1496 1003 L 1519 983 L 1433 982 L 1438 975 L 1441 967 L 1453 946 L 1454 943 L 1622 943 L 1666 870 L 1666 868 L 1429 868 Z M 459 1082 L 459 1083 L 496 1083 L 497 1084 L 533 1084 L 519 1083 L 518 1082 L 459 1082 Z " /><path fill="rgb(0,0,0)" stroke="rgb(0,0,0)" stroke-width="1" opacity="0" d="M 851.5 901 L 857 902 Q 858.5 906.5 854 905 Q 855.3 901.7 850.5 903 L 851.5 901 Z " /><path fill="rgb(0,0,0)" stroke="rgb(0,0,0)" stroke-width="1" opacity="0" d="M 851.5 907 L 854 908.5 L 854 912.5 L 843.5 930 L 843 910.5 L 845.5 908 Q 850.3 909.2 851.5 907 Z " /><path fill="rgb(0,0,0)" stroke="rgb(0,0,0)" stroke-width="1" opacity="0" d="M 1105.5 943 L 1252.5 943 L 1254 944.5 L 1253 953.5 L 1243 973.5 L 1237.5 980 L 1228.5 984 L 1085.5 984 L 1086 982.5 L 1105.5 943 Z " /><path fill="rgb(0,0,0)" stroke="rgb(0,0,0)" stroke-width="1" opacity="0" d="M 574.5 998 L 577 998.5 L 574.5 999 L 574.5 998 Z " /></svg>